<?xml version="1.0" standalone="no"?>
<!DOCTYPE svg PUBLIC "-//W3C//DTD SVG 20010904//EN"
 "http://www.w3.org/TR/2001/REC-SVG-20010904/DTD/svg10.dtd">
<svg version="1.0" xmlns="http://www.w3.org/2000/svg"
 width="1072.000000pt" height="1072.000000pt" viewBox="0 0 1072.000000 1072.000000"
 preserveAspectRatio="xMidYMid meet">
<metadata>
Created by potrace 1.11, written by Peter Selinger 2001-2013
</metadata>
<g transform="translate(0.000000,1072.000000) scale(0.100000,-0.100000)"
fill="#000000" stroke="none">
<path d="M0 5355 l0 -4596 1223 4 c672 2 1238 7 1257 10 19 3 67 8 105 12 39
4 81 8 95 10 87 11 121 16 141 21 13 3 38 7 54 9 43 5 185 32 268 51 9 2 26 6
38 9 11 2 30 7 42 11 12 5 27 8 32 9 27 2 81 18 93 27 6 6 12 8 12 4 0 -3 11
-1 26 4 14 6 39 12 55 15 17 3 38 9 47 14 9 5 46 18 82 29 36 11 79 26 95 33
17 7 35 13 40 14 6 2 17 4 25 6 8 2 17 6 20 9 3 3 32 16 65 28 188 73 494 223
630 309 11 7 38 22 59 34 22 12 46 28 54 35 7 8 17 14 22 14 5 0 15 6 22 13 7
6 25 18 40 26 15 8 36 21 46 30 10 9 27 22 38 29 43 28 74 50 168 122 146 111
150 114 166 130 9 8 47 42 85 75 37 33 100 90 139 127 39 37 73 68 76 68 3 0
38 -31 78 -69 39 -38 100 -93 133 -123 34 -29 80 -70 103 -90 23 -21 44 -38
48 -38 4 0 13 -6 20 -13 20 -18 71 -59 102 -82 16 -11 41 -30 56 -42 15 -13
31 -23 35 -23 4 0 16 -10 26 -22 11 -11 19 -17 19 -12 0 5 4 4 8 -1 9 -14 132
-95 142 -95 5 0 10 -4 12 -8 2 -5 29 -24 62 -43 32 -19 70 -41 85 -50 64 -39
115 -67 247 -133 77 -39 163 -81 190 -93 172 -76 244 -105 244 -97 0 4 6 2 13
-4 11 -9 116 -50 142 -55 6 -2 16 -6 23 -10 7 -5 23 -10 36 -13 12 -2 52 -13
87 -25 66 -21 279 -78 314 -84 11 -2 31 -6 45 -9 81 -18 188 -38 275 -51 55
-8 116 -18 135 -21 19 -3 62 -7 95 -10 33 -2 76 -7 95 -11 19 -3 587 -8 1263
-10 l1227 -4 0 4596 0 4596 -1212 -4 c-667 -2 -1240 -7 -1273 -10 -33 -4 -80
-9 -105 -11 -25 -3 -45 -5 -45 -6 0 -1 -20 -3 -45 -6 -59 -6 -98 -11 -135 -17
-16 -3 -48 -8 -70 -12 -23 -3 -52 -8 -65 -10 -14 -3 -38 -8 -55 -11 -16 -3
-50 -10 -75 -15 -25 -6 -54 -13 -65 -15 -11 -2 -63 -15 -115 -29 -52 -14 -104
-27 -114 -30 -11 -2 -40 -11 -66 -20 -26 -9 -55 -17 -66 -20 -23 -4 -192 -66
-249 -89 -22 -10 -42 -17 -45 -18 -10 -1 -56 -20 -95 -38 -22 -10 -52 -22 -67
-25 -16 -4 -28 -12 -28 -18 0 -6 -3 -8 -6 -5 -3 4 -75 -29 -160 -72 -85 -43
-154 -75 -154 -71 0 3 -4 1 -8 -5 -4 -6 -34 -26 -67 -44 -33 -18 -67 -39 -76
-46 -8 -8 -19 -14 -23 -14 -10 0 -150 -93 -154 -102 -2 -5 -8 -8 -14 -8 -8 0
-81 -47 -113 -72 -5 -5 -39 -30 -75 -56 -72 -51 -159 -120 -175 -136 -5 -6
-32 -29 -60 -51 -27 -22 -55 -44 -61 -50 -6 -5 -58 -53 -114 -105 -57 -52
-106 -95 -110 -95 -4 0 -37 27 -72 60 -57 53 -166 151 -234 210 -13 11 -36 30
-51 42 -15 12 -39 31 -53 43 -13 11 -39 30 -57 41 -18 11 -33 25 -33 30 0 5
-6 9 -14 9 -7 0 -19 7 -26 14 -16 20 -296 206 -309 206 -6 0 -11 3 -11 8 0 4
-21 18 -47 32 -27 13 -50 27 -53 30 -3 3 -18 12 -35 20 -16 8 -32 17 -35 20
-3 3 -45 25 -95 50 -49 25 -93 49 -96 53 -3 5 -9 8 -13 8 -3 -1 -39 14 -79 32
-106 49 -221 98 -227 96 -3 -2 -16 4 -30 12 -14 7 -41 19 -60 26 -50 19 -273
95 -285 97 -5 2 -30 9 -55 16 -25 7 -49 14 -55 16 -5 1 -39 10 -75 19 -36 10
-75 19 -87 20 -12 2 -37 8 -55 14 -18 5 -46 12 -63 15 -16 3 -41 7 -55 11 -14
3 -38 8 -55 10 -16 3 -54 10 -83 15 -29 5 -56 9 -60 9 -4 -1 -9 0 -12 1 -3 1
-18 4 -35 6 -16 1 -50 5 -75 9 -25 3 -70 7 -100 10 -30 3 -73 8 -95 12 -22 3
-590 8 -1262 10 l-1223 4 0 -4596z m5900 2710 c294 -294 539 -535 544 -535 4
0 26 17 47 38 21 21 59 56 84 78 26 21 57 48 68 59 12 11 51 43 87 70 36 27
67 53 68 57 2 4 10 8 18 8 8 0 14 4 14 8 0 5 16 17 35 28 19 10 35 21 35 24 0
3 13 11 28 18 16 6 38 21 50 32 12 12 22 18 22 14 0 -4 8 0 18 8 33 28 240
137 357 187 28 12 62 28 77 36 14 8 35 15 45 15 10 0 24 5 30 11 6 6 17 11 24
13 8 1 64 19 124 38 61 20 124 40 140 43 40 8 60 13 60 15 0 2 23 8 60 15 17
3 50 10 75 15 25 5 61 12 80 15 19 3 46 7 60 10 101 17 183 24 358 29 83 3
157 8 162 11 6 3 10 2 10 -2 0 -10 53 -9 69 2 6 3 11 2 11 -2 0 -10 53 -9 69
2 6 3 11 2 11 -2 0 -10 53 -9 69 2 6 3 11 3 11 -2 0 -4 54 -8 120 -8 66 0 120
4 120 9 0 5 6 3 14 -3 12 -10 14 -449 13 -3069 l-2 -3057 -370 0 c-336 0 -529
7 -596 20 -13 3 -42 8 -64 10 -22 3 -51 7 -65 10 -62 13 -77 16 -109 21 -19 3
-45 10 -58 15 -13 5 -27 8 -31 7 -19 -4 -333 94 -407 127 -16 7 -50 21 -75 31
-164 64 -442 222 -605 344 -18 14 -45 34 -60 44 -14 11 -35 27 -45 35 -10 9
-38 32 -61 51 -60 48 -189 171 -189 180 0 4 484 490 1075 1081 591 591 1075
1079 1075 1084 0 6 -486 495 -1080 1089 l-1079 1078 -37 -38 c-20 -22 -59 -65
-87 -96 -27 -32 -54 -58 -59 -58 -5 0 -209 -201 -453 -446 l-444 -445 -446
445 c-244 245 -448 446 -453 446 -4 0 -33 28 -64 63 -31 34 -71 77 -88 95 -18
18 -31 34 -29 37 41 44 1075 1075 1079 1075 3 0 246 -241 540 -535z m-4083
353 c24 -1 45 1 49 4 3 4 18 3 33 -2 16 -4 34 -4 42 0 7 5 17 6 22 3 13 -8 96
-8 104 0 3 4 12 2 20 -4 9 -8 13 -8 13 -1 0 7 10 8 28 2 16 -4 36 -4 45 2 10
5 17 5 17 1 0 -4 35 -9 78 -10 74 -2 172 -9 182 -13 3 -1 9 -2 13 -1 11 2 177
-25 272 -44 200 -40 482 -131 608 -195 20 -11 37 -18 37 -16 0 6 223 -110 273
-141 23 -15 42 -25 42 -23 0 2 45 -28 100 -65 152 -104 159 -108 180 -130 11
-11 24 -21 28 -22 5 -1 25 -17 46 -35 21 -18 62 -53 91 -78 90 -78 132 -120
128 -130 -2 -6 -488 -495 -1080 -1087 l-1078 -1078 1084 -1083 1083 -1083 46
48 c69 72 117 127 117 136 0 4 6 7 14 7 7 0 215 201 460 447 l446 446 447
-444 c405 -403 510 -509 605 -606 l32 -33 -542 -542 -542 -542 -541 541 -541
542 -72 -67 c-39 -37 -76 -71 -82 -77 -6 -5 -28 -23 -49 -40 -20 -16 -42 -35
-49 -40 -6 -6 -29 -24 -51 -40 -22 -17 -42 -33 -45 -36 -3 -3 -20 -14 -37 -24
-18 -11 -33 -23 -33 -27 0 -4 -6 -8 -14 -8 -8 0 -16 -3 -18 -7 -5 -12 -92 -68
-100 -65 -5 1 -8 -3 -8 -8 0 -6 -6 -10 -14 -10 -8 0 -16 -3 -18 -7 -8 -20
-436 -233 -466 -233 -5 0 -35 -11 -66 -25 -31 -14 -56 -22 -56 -19 0 4 -7 1
-15 -6 -8 -7 -15 -10 -15 -6 0 3 -17 -1 -37 -9 -42 -15 -163 -51 -203 -59 -14
-3 -72 -14 -130 -26 -58 -11 -122 -24 -142 -29 -22 -5 -36 -5 -32 0 3 5 -6 5
-20 -1 -44 -16 -173 -22 -578 -25 l-396 -3 -1 3063 0 3063 44 -1 c25 0 46 1
49 4 4 4 34 3 193 -3z m4087 -2524 c295 -295 536 -538 536 -539 0 -7 -1073
-1075 -1080 -1075 -6 0 -1012 1001 -1064 1059 -16 18 6 41 519 555 294 295
540 536 545 536 5 0 250 -241 544 -536z"/>
</g>
</svg>
